<?xml version="1.0" standalone="no"?>
<!DOCTYPE svg PUBLIC "-//W3C//DTD SVG 20010904//EN"
 "http://www.w3.org/TR/2001/REC-SVG-20010904/DTD/svg10.dtd">
<svg version="1.0" xmlns="http://www.w3.org/2000/svg"
 width="577.000000pt" height="433.000000pt" viewBox="0 0 577.000000 433.000000"
 preserveAspectRatio="xMidYMid meet">

<g transform="translate(0.000000,433.000000) scale(0.100000,-0.100000)"
fill="#000000" stroke="none">
<path d="M1190 2345 l0 -595 68 0 67 0 0 527 0 528 94 0 95 0 278 -390 c154
-214 286 -402 296 -417 11 -20 24 -28 44 -28 l28 0 0 485 0 485 -65 0 -65 0
-2 -322 -3 -323 -238 323 -239 322 -179 0 -179 0 0 -595z"/>
<path d="M2250 2410 l0 -530 -93 0 -94 0 -298 420 c-272 383 -301 420 -327
420 l-28 0 0 -485 0 -485 70 0 71 0 -1 316 c-1 174 0 318 2 319 2 2 109 -140
238 -316 l235 -318 178 -1 177 0 0 595 0 595 -65 0 -65 0 0 -530z"/>
<path d="M2426 2883 c20 -32 113 -178 205 -324 l169 -266 0 -271 0 -272 70 0
70 0 0 258 0 258 -206 337 -206 337 -69 0 -70 0 37 -57z"/>
<path d="M2690 2843 c34 -54 111 -180 173 -281 61 -100 115 -181 119 -180 5 2
84 127 176 278 l169 275 -45 3 c-24 2 -50 1 -56 -1 -6 -3 -63 -86 -126 -186
-63 -99 -117 -181 -120 -181 -3 0 -57 82 -120 183 l-115 182 -58 3 -57 3 60
-98z"/>
<path d="M3227 2603 l-207 -338 0 -257 0 -258 70 0 70 0 0 270 0 270 52 83
c54 86 320 506 346 545 l14 22 -69 0 -70 0 -206 -337z"/>
<path d="M3843 2921 c-173 -47 -306 -159 -383 -322 -81 -173 -77 -349 10 -526
67 -136 189 -241 340 -294 96 -33 266 -33 368 0 149 49 274 157 343 296 21 44
42 95 45 113 l7 32 -64 0 -64 0 -33 -70 c-86 -184 -290 -294 -486 -262 -252
43 -427 281 -387 525 34 205 188 358 392 390 194 30 395 -79 480 -261 l34 -72
66 0 67 0 -13 44 c-55 182 -209 341 -383 397 -97 31 -245 35 -339 10z"/>
<path d="M3895 2707 c-131 -44 -227 -143 -261 -269 -57 -217 98 -441 323 -464
148 -16 303 70 372 205 l21 41 -71 0 c-70 0 -71 0 -114 -43 -115 -115 -299
-89 -378 52 -81 143 2 319 165 353 80 17 150 -6 212 -67 44 -45 45 -45 116
-45 l71 0 -27 50 c-36 66 -111 135 -182 167 -68 32 -184 41 -247 20z"/>
</g>
</svg>
