<?xml version="1.0" standalone="no"?>
<!DOCTYPE svg PUBLIC "-//W3C//DTD SVG 20010904//EN"
 "http://www.w3.org/TR/2001/REC-SVG-20010904/DTD/svg10.dtd">
<svg version="1.0" xmlns="http://www.w3.org/2000/svg"
 width="480.000000pt" height="480.000000pt" viewBox="0 0 480.000000 480.000000"
 preserveAspectRatio="xMidYMid meet">

<g transform="translate(0.000000,480.000000) scale(0.100000,-0.100000)"
fill="#000000" stroke="none">
<path d="M1962 3182 c-27 -45 -32 -60 -23 -74 17 -28 13 -83 -8 -102 -10 -9
-35 -20 -56 -23 -32 -5 -43 -14 -76 -66 -40 -64 -41 -77 -6 -77 18 0 34 -24
92 -138 l70 -137 59 -3 c62 -3 96 14 96 47 0 9 -31 69 -70 134 l-69 117 37 15
c49 21 71 42 93 90 38 82 15 206 -48 255 -40 31 -55 24 -91 -38z"/>
<path d="M3187 2905 c-15 -25 -27 -48 -27 -50 0 -3 32 -5 70 -5 68 0 70 1 70
25 0 17 -11 32 -37 50 -21 14 -40 25 -43 25 -3 0 -17 -20 -33 -45z"/>
<path d="M1660 2693 c-36 -60 -66 -114 -68 -121 -3 -10 14 -12 70 -10 l73 3 3
118 c1 64 -1 117 -5 117 -5 0 -37 -48 -73 -107z"/>
<path d="M3032 2653 c-22 -38 -37 -72 -33 -76 4 -4 72 -6 152 -5 l144 3 3 73
3 72 -114 0 -115 0 -40 -67z"/>
<path d="M2875 2216 c-103 -33 -180 -98 -226 -193 -42 -87 -41 -246 1 -337 28
-59 80 -117 125 -141 l36 -20 49 55 c27 30 49 57 49 60 0 3 -18 18 -40 33
-119 82 -117 290 3 373 34 24 53 29 112 32 60 3 78 0 121 -22 27 -14 50 -24
50 -23 1 1 18 28 38 59 20 31 37 60 37 65 0 14 -50 39 -109 57 -65 19 -189 20
-246 2z"/>
<path d="M1513 2198 c55 -136 198 -495 224 -563 45 -118 61 -135 130 -135 29
0 53 2 53 3 0 2 29 75 65 161 l64 158 -49 48 c-28 27 -50 53 -50 59 0 6 -4 11
-9 11 -5 0 -23 -41 -41 -90 -18 -50 -35 -88 -38 -85 -4 3 -43 103 -87 223
l-82 217 -93 3 c-72 2 -91 0 -87 -10z"/>
</g>
</svg>
